<svg width="16" height="19" viewBox="0 0 16 19" fill="none" xmlns="http://www.w3.org/2000/svg">
<path d="M8 0.833332C9.98912 0.833332 11.8968 1.62351 13.3033 3.03003C14.7098 4.43655 15.5 6.34421 15.5 8.33333C15.5 11.4383 13.1333 14.6917 8.5 18.1667C8.35575 18.2749 8.18031 18.3333 8 18.3333C7.81969 18.3333 7.64425 18.2749 7.5 18.1667C2.86667 14.6917 0.5 11.4383 0.5 8.33333C0.5 6.34421 1.29018 4.43655 2.6967 3.03003C4.10322 1.62351 6.01088 0.833332 8 0.833332ZM8 5.83333C7.33696 5.83333 6.70107 6.09672 6.23223 6.56557C5.76339 7.03441 5.5 7.67029 5.5 8.33333C5.5 8.99637 5.76339 9.63226 6.23223 10.1011C6.70107 10.5699 7.33696 10.8333 8 10.8333C8.66304 10.8333 9.29893 10.5699 9.76777 10.1011C10.2366 9.63226 10.5 8.99637 10.5 8.33333C10.5 7.67029 10.2366 7.03441 9.76777 6.56557C9.29893 6.09672 8.66304 5.83333 8 5.83333Z" fill="black"/>
</svg>
