<svg width="15" height="17" viewBox="0 0 15 17" fill="none" xmlns="http://www.w3.org/2000/svg">
<path d="M7.03125 0C8.89605 0 10.6845 0.74859 12.0031 2.08108C13.3217 3.41357 14.0625 5.22083 14.0625 7.10526C14.0625 10.0468 11.8437 13.129 7.5 16.4211C7.36477 16.5236 7.20029 16.5789 7.03125 16.5789C6.86221 16.5789 6.69773 16.5236 6.5625 16.4211C2.21875 13.129 0 10.0468 0 7.10526C0 5.22083 0.740794 3.41357 2.05941 2.08108C3.37802 0.74859 5.16645 0 7.03125 0ZM7.03125 4.73684C6.40965 4.73684 5.8135 4.98637 5.37397 5.43054C4.93443 5.87471 4.6875 6.47712 4.6875 7.10526C4.6875 7.7334 4.93443 8.33583 5.37397 8.77999C5.8135 9.22412 6.40965 9.47365 7.03125 9.47365C7.65285 9.47365 8.249 9.22412 8.68853 8.77999C9.12806 8.33583 9.375 7.7334 9.375 7.10526C9.375 6.47712 9.12806 5.87471 8.68853 5.43054C8.249 4.98637 7.65285 4.73684 7.03125 4.73684Z" fill="white"/>
</svg>
