<svg width="18" height="18" viewBox="0 0 18 18" fill="none" xmlns="http://www.w3.org/2000/svg">
<path d="M13.7298 17.6668C10.2665 17.6624 6.94627 16.2818 4.49729 13.828C2.04832 11.3741 0.670505 8.0473 0.666016 4.57704C0.666016 3.54006 1.07714 2.54554 1.80894 1.81229C2.54074 1.07903 3.53328 0.667089 4.56821 0.667089C4.78736 0.665417 5.00614 0.685345 5.2214 0.726588C5.4295 0.757443 5.63407 0.808688 5.83218 0.879586C5.97152 0.928571 6.09568 1.01315 6.19239 1.12495C6.28909 1.23676 6.355 1.37192 6.38358 1.51708L7.54576 6.61701C7.57708 6.75545 7.5733 6.89954 7.53478 7.03613C7.49626 7.17272 7.4242 7.29748 7.3252 7.39901C7.21492 7.51801 7.20643 7.52651 6.16302 8.07049C6.99859 9.90721 8.46463 11.3822 10.2942 12.2269C10.8457 11.173 10.8541 11.1644 10.9729 11.054C11.0742 10.9547 11.1987 10.8826 11.3351 10.8439C11.4714 10.8054 11.6152 10.8016 11.7534 10.8329L16.8432 11.9974C16.9834 12.0301 17.1131 12.0979 17.2198 12.1945C17.3267 12.2912 17.4072 12.4135 17.454 12.55C17.5255 12.7517 17.5795 12.9593 17.6151 13.1704C17.6492 13.384 17.6663 13.6 17.666 13.8164C17.6503 14.849 17.2277 15.8334 16.4903 16.5547C15.7527 17.2762 14.7604 17.676 13.7298 17.6668Z" fill="white"/>
</svg>
