<svg width="18" height="18" viewBox="0 0 18 18" fill="none" xmlns="http://www.w3.org/2000/svg">
<path d="M13.4998 17.3333C10.0976 17.3289 6.83593 15.9754 4.43017 13.5697C2.02441 11.1639 0.670914 7.90226 0.666504 4.5C0.666504 3.48334 1.07037 2.50831 1.78926 1.78943C2.50815 1.07054 3.48317 0.666668 4.49984 0.666668C4.71512 0.665028 4.93004 0.684566 5.1415 0.725001C5.34593 0.755251 5.54689 0.805492 5.7415 0.875001C5.87838 0.923026 6.00035 1.00595 6.09535 1.11556C6.19035 1.22518 6.25509 1.35769 6.28317 1.5L7.42484 6.5C7.45561 6.63572 7.4519 6.77699 7.41406 6.9109C7.37621 7.04482 7.30543 7.16713 7.20817 7.26667C7.09984 7.38334 7.0915 7.39167 6.0665 7.925C6.88733 9.72572 8.3275 11.1718 10.1248 12C10.6665 10.9667 10.6748 10.9583 10.7915 10.85C10.891 10.7527 11.0133 10.682 11.1473 10.6441C11.2812 10.6063 11.4225 10.6026 11.5582 10.6333L16.5582 11.775C16.6959 11.807 16.8233 11.8735 16.9282 11.9682C17.0332 12.063 17.1123 12.1829 17.1582 12.3167C17.2285 12.5145 17.2815 12.718 17.3165 12.925C17.35 13.1344 17.3668 13.3462 17.3665 13.5583C17.3511 14.5707 16.9359 15.5358 16.2115 16.243C15.487 16.9503 14.5122 17.3423 13.4998 17.3333Z" fill="black"/>
</svg>
